<svg width="304" height="28" viewBox="0 0 304 28" fill="none" xmlns="http://www.w3.org/2000/svg">
<g filter="url(#filter0_iiii_8833_4676)">
<path d="M0 8C0 3.58172 3.58172 0 8 0H296C300.418 0 304 3.58172 304 8V20C304 24.4183 300.418 28 296 28H8.00001C3.58173 28 0 24.4183 0 20V8Z" fill="white"/>
<path d="M15.75 10.0607V17.75C15.75 18.1642 15.4142 18.5 15 18.5C14.5858 18.5 14.25 18.1642 14.25 17.75L14.25 10.0607L12.5303 11.7803C12.2374 12.0732 11.7626 12.0732 11.4697 11.7803C11.1768 11.4874 11.1768 11.0126 11.4697 10.7197L14.4697 7.71967C14.7626 7.42678 15.2374 7.42678 15.5303 7.71967L18.5303 10.7197C18.8232 11.0126 18.8232 11.4874 18.5303 11.7803C18.2374 12.0732 17.7626 12.0732 17.4697 11.7803L15.75 10.0607Z" fill="#4A4A4A"/>
<path d="M21.75 10.25C21.75 9.83579 21.4142 9.5 21 9.5C20.5858 9.5 20.25 9.83579 20.25 10.25V17.9393L18.5303 16.2197C18.2374 15.9268 17.7626 15.9268 17.4697 16.2197C17.1768 16.5126 17.1768 16.9874 17.4697 17.2803L20.4697 20.2803C20.7626 20.5732 21.2374 20.5732 21.5303 20.2803L24.5303 17.2803C24.8232 16.9874 24.8232 16.5126 24.5303 16.2197C24.2374 15.9268 23.7626 15.9268 23.4697 16.2197L21.75 17.9393V10.25Z" fill="#4A4A4A"/>
<path d="M31.8409 18H30.2983L33.4048 9.27273H35.1392L38.2457 18H36.7031L34.304 10.9602H34.2358L31.8409 18ZM31.9815 14.5824H36.5497V15.767H31.9815V14.5824ZM41.6548 18.1193C41.1321 18.1193 40.6662 17.9858 40.2571 17.7188C39.848 17.4517 39.5256 17.0668 39.2898 16.5639C39.054 16.0582 38.9361 15.4503 38.9361 14.7401C38.9361 14.0213 39.0554 13.4105 39.294 12.9077C39.5327 12.4048 39.858 12.0227 40.2699 11.7614C40.6818 11.5 41.1463 11.3693 41.6634 11.3693C42.0582 11.3693 42.3793 11.4361 42.6264 11.5696C42.8736 11.7003 43.0682 11.8565 43.2102 12.0384C43.3523 12.2173 43.4616 12.3793 43.5384 12.5241H43.6065V9.27273H45.017V18H43.6364V16.973H43.5384C43.4588 17.1236 43.3452 17.2884 43.1974 17.4673C43.0526 17.6463 42.8551 17.7997 42.6051 17.9276C42.358 18.0554 42.0412 18.1193 41.6548 18.1193ZM42.0128 16.9474C42.3594 16.9474 42.6534 16.8551 42.8949 16.6705C43.1364 16.483 43.3196 16.223 43.4446 15.8906C43.5724 15.5554 43.6364 15.1676 43.6364 14.7273C43.6364 14.2869 43.5739 13.9034 43.4489 13.5767C43.3239 13.25 43.1406 12.9972 42.8991 12.8182C42.6577 12.6364 42.3622 12.5455 42.0128 12.5455C41.6491 12.5455 41.3452 12.6406 41.1009 12.831C40.8565 13.0185 40.6733 13.277 40.5511 13.6065C40.429 13.9332 40.3679 14.3068 40.3679 14.7273C40.3679 15.1506 40.4304 15.5298 40.5554 15.8651C40.6804 16.2003 40.8636 16.4645 41.1051 16.6577C41.3494 16.8509 41.652 16.9474 42.0128 16.9474ZM49.19 18.1193C48.6673 18.1193 48.2013 17.9858 47.7923 17.7188C47.3832 17.4517 47.0607 17.0668 46.8249 16.5639C46.5891 16.0582 46.4712 15.4503 46.4712 14.7401C46.4712 14.0213 46.5906 13.4105 46.8292 12.9077C47.0678 12.4048 47.3931 12.0227 47.805 11.7614C48.217 11.5 48.6815 11.3693 49.1985 11.3693C49.5934 11.3693 49.9144 11.4361 50.1616 11.5696C50.4087 11.7003 50.6033 11.8565 50.7454 12.0384C50.8874 12.2173 50.9968 12.3793 51.0735 12.5241H51.1417V9.27273H52.5522V18H51.1715V16.973H51.0735C50.994 17.1236 50.8803 17.2884 50.7326 17.4673C50.5877 17.6463 50.3903 17.7997 50.1403 17.9276C49.8931 18.0554 49.5763 18.1193 49.19 18.1193ZM49.5479 16.9474C49.8945 16.9474 50.1886 16.8551 50.43 16.6705C50.6715 16.483 50.8548 16.223 50.9798 15.8906C51.1076 15.5554 51.1715 15.1676 51.1715 14.7273C51.1715 14.2869 51.109 13.9034 50.984 13.5767C50.859 13.25 50.6758 12.9972 50.4343 12.8182C50.1928 12.6364 49.8974 12.5455 49.5479 12.5455C49.1843 12.5455 48.8803 12.6406 48.636 12.831C48.3917 13.0185 48.2085 13.277 48.0863 13.6065C47.9641 13.9332 47.9031 14.3068 47.9031 14.7273C47.9031 15.1506 47.9656 15.5298 48.0906 15.8651C48.2156 16.2003 48.3988 16.4645 48.6403 16.6577C48.8846 16.8509 49.1871 16.9474 49.5479 16.9474ZM58.418 9.27273L60.7702 16.2614H60.8597L63.212 9.27273H64.7887L61.6822 18H59.9478L56.8413 9.27273H58.418ZM68.0923 18.1321C67.4418 18.1321 66.8807 17.9943 66.4091 17.7188C65.9375 17.4403 65.5753 17.0497 65.3224 16.5469C65.0696 16.0412 64.9432 15.4489 64.9432 14.7699C64.9432 14.0966 65.0696 13.5043 65.3224 12.9929C65.5781 12.4815 65.9347 12.0838 66.392 11.7997C66.8494 11.5128 67.3864 11.3693 68.0028 11.3693C68.392 11.3693 68.7628 11.4318 69.1151 11.5568C69.4673 11.6818 69.7813 11.8778 70.0568 12.1449C70.3324 12.4091 70.5497 12.75 70.7088 13.1676C70.8707 13.5852 70.9517 14.0852 70.9517 14.6676V15.1278H65.6634V14.1307H69.5838C69.5838 13.8182 69.5185 13.5398 69.3878 13.2955C69.2571 13.0483 69.0739 12.8537 68.8381 12.7116C68.6051 12.5696 68.3324 12.4986 68.0199 12.4986C67.6818 12.4986 67.3864 12.5795 67.1335 12.7415C66.8835 12.9034 66.6889 13.1165 66.5497 13.3807C66.4134 13.6449 66.3438 13.9318 66.3409 14.2415V15.0639C66.3409 15.473 66.4148 15.8224 66.5625 16.1122C66.7102 16.402 66.9162 16.6236 67.1804 16.777C67.4446 16.9276 67.7528 17.0028 68.1051 17.0028C68.3409 17.0028 68.554 16.9702 68.7443 16.9048C68.9347 16.8366 69.098 16.7372 69.2344 16.6065C69.3736 16.473 69.4801 16.3082 69.554 16.1122L70.8793 16.304C70.7855 16.6705 70.6122 16.9915 70.3594 17.267C70.1094 17.5398 69.7912 17.7528 69.4048 17.9062C69.0213 18.0568 68.5838 18.1321 68.0923 18.1321ZM72.3068 18V11.4545H73.6747V12.5199H73.7429C73.8622 12.1562 74.0696 11.8722 74.3651 11.6676C74.6634 11.4602 75.0014 11.3565 75.3793 11.3565C75.4616 11.3565 75.5568 11.3608 75.6648 11.3693C75.7727 11.375 75.8608 11.3835 75.929 11.3949V12.7159C75.8693 12.696 75.7713 12.6776 75.6349 12.6605C75.5014 12.6406 75.3693 12.6307 75.2386 12.6307C74.946 12.6307 74.6847 12.6932 74.4545 12.8182C74.2273 12.9403 74.0469 13.1108 73.9134 13.3295C73.7827 13.5455 73.7173 13.7955 73.7173 14.0795V18H72.3068ZM82.9208 11.4545L80.5643 18H79.0302L76.6779 11.4545H78.1822L79.7631 16.4062H79.8313L81.4165 11.4545H82.9208ZM86.69 18.1321C86.0394 18.1321 85.4783 17.9943 85.0067 17.7188C84.5352 17.4403 84.1729 17.0497 83.9201 16.5469C83.6673 16.0412 83.5408 15.4489 83.5408 14.7699C83.5408 14.0966 83.6673 13.5043 83.9201 12.9929C84.1758 12.4815 84.5323 12.0838 84.9897 11.7997C85.4471 11.5128 85.984 11.3693 86.6005 11.3693C86.9897 11.3693 87.3604 11.4318 87.7127 11.5568C88.065 11.6818 88.3789 11.8778 88.6545 12.1449C88.93 12.4091 89.1474 12.75 89.3065 13.1676C89.4684 13.5852 89.5494 14.0852 89.5494 14.6676V15.1278H84.261V14.1307H88.1815C88.1815 13.8182 88.1161 13.5398 87.9854 13.2955C87.8548 13.0483 87.6715 12.8537 87.4357 12.7116C87.2028 12.5696 86.93 12.4986 86.6175 12.4986C86.2795 12.4986 85.984 12.5795 85.7312 12.7415C85.4812 12.9034 85.2866 13.1165 85.1474 13.3807C85.011 13.6449 84.9414 13.9318 84.9386 14.2415V15.0639C84.9386 15.473 85.0124 15.8224 85.1602 16.1122C85.3079 16.402 85.5138 16.6236 85.7781 16.777C86.0423 16.9276 86.3505 17.0028 86.7028 17.0028C86.9386 17.0028 87.1516 16.9702 87.342 16.9048C87.5323 16.8366 87.6957 16.7372 87.832 16.6065C87.9712 16.473 88.0778 16.3082 88.1516 16.1122L89.4769 16.304C89.3832 16.6705 89.2099 16.9915 88.957 17.267C88.707 17.5398 88.3888 17.7528 88.0025 17.9062C87.619 18.0568 87.1815 18.1321 86.69 18.1321ZM91.9229 18H90.3803L93.4869 9.27273H95.2212L98.3278 18H96.7852L94.386 10.9602H94.3178L91.9229 18ZM92.0636 14.5824H96.6317V15.767H92.0636V14.5824ZM99.5327 18V9.27273H102.729C103.399 9.27273 103.96 9.3892 104.412 9.62216C104.864 9.85511 105.203 10.179 105.43 10.5938C105.661 11.0085 105.776 11.4886 105.776 12.0341C105.776 12.5824 105.661 13.0611 105.43 13.4702C105.2 13.8764 104.858 14.1918 104.403 14.4162C103.949 14.6378 103.386 14.7486 102.716 14.7486H100.368V13.5298H102.545C102.957 13.5298 103.293 13.4716 103.551 13.3551C103.81 13.2386 104 13.0696 104.122 12.848C104.244 12.6264 104.305 12.3551 104.305 12.0341C104.305 11.7159 104.243 11.4418 104.118 11.2116C103.996 10.9815 103.804 10.8054 103.543 10.6832C103.284 10.5582 102.949 10.4957 102.537 10.4957H100.986V18H99.5327ZM103.943 14.054L106.099 18H104.472L102.349 14.054H103.943ZM111.317 18H109.775L112.881 9.27273H114.616L117.722 18H116.18L113.781 10.9602H113.712L111.317 18ZM111.458 14.5824H116.026V15.767H111.458V14.5824ZM118.842 20.4545V11.4545H120.223V12.5241H120.321C120.4 12.3793 120.511 12.2173 120.653 12.0384C120.795 11.8565 120.99 11.7003 121.237 11.5696C121.484 11.4361 121.805 11.3693 122.2 11.3693C122.714 11.3693 123.177 11.5 123.589 11.7614C124.001 12.0227 124.326 12.4048 124.565 12.9077C124.804 13.4105 124.923 14.0213 124.923 14.7401C124.923 15.4503 124.805 16.0582 124.569 16.5639C124.333 17.0668 124.011 17.4517 123.602 17.7188C123.193 17.9858 122.727 18.1193 122.204 18.1193C121.818 18.1193 121.5 18.0554 121.25 17.9276C121.002 17.7997 120.805 17.6463 120.657 17.4673C120.512 17.2884 120.4 17.1236 120.321 16.973H120.252V20.4545H118.842ZM120.227 14.7273C120.227 15.1676 120.289 15.5554 120.414 15.8906C120.542 16.223 120.727 16.483 120.968 16.6705C121.21 16.8551 121.504 16.9474 121.85 16.9474C122.208 16.9474 122.51 16.8509 122.754 16.6577C122.998 16.4645 123.181 16.2003 123.304 15.8651C123.429 15.5298 123.491 15.1506 123.491 14.7273C123.491 14.3068 123.43 13.9332 123.308 13.6065C123.186 13.277 123.002 13.0185 122.758 12.831C122.517 12.6406 122.214 12.5455 121.85 12.5455C121.498 12.5455 121.201 12.6364 120.96 12.8182C120.718 12.9972 120.535 13.25 120.41 13.5767C120.288 13.9034 120.227 14.2869 120.227 14.7273ZM126.295 20.4545V11.4545H127.676V12.5241H127.774C127.853 12.3793 127.964 12.2173 128.106 12.0384C128.248 11.8565 128.443 11.7003 128.69 11.5696C128.937 11.4361 129.258 11.3693 129.653 11.3693C130.167 11.3693 130.63 11.5 131.042 11.7614C131.454 12.0227 131.779 12.4048 132.018 12.9077C132.257 13.4105 132.376 14.0213 132.376 14.7401C132.376 15.4503 132.258 16.0582 132.022 16.5639C131.787 17.0668 131.464 17.4517 131.055 17.7188C130.646 17.9858 130.18 18.1193 129.657 18.1193C129.271 18.1193 128.953 18.0554 128.703 17.9276C128.456 17.7997 128.258 17.6463 128.11 17.4673C127.966 17.2884 127.853 17.1236 127.774 16.973H127.706V20.4545H126.295ZM127.68 14.7273C127.68 15.1676 127.743 15.5554 127.868 15.8906C127.995 16.223 128.18 16.483 128.422 16.6705C128.663 16.8551 128.957 16.9474 129.304 16.9474C129.662 16.9474 129.963 16.8509 130.207 16.6577C130.451 16.4645 130.635 16.2003 130.757 15.8651C130.882 15.5298 130.944 15.1506 130.944 14.7273C130.944 14.3068 130.883 13.9332 130.761 13.6065C130.639 13.277 130.456 13.0185 130.211 12.831C129.97 12.6406 129.667 12.5455 129.304 12.5455C128.951 12.5455 128.654 12.6364 128.413 12.8182C128.172 12.9972 127.988 13.25 127.863 13.5767C127.741 13.9034 127.68 14.2869 127.68 14.7273ZM136.915 18V9.27273H140.188C140.813 9.27273 141.332 9.37358 141.744 9.57528C142.156 9.77415 142.464 10.0455 142.668 10.3892C142.873 10.733 142.975 11.1193 142.975 11.5483C142.975 11.9091 142.907 12.2145 142.771 12.4645C142.637 12.7145 142.457 12.9162 142.229 13.0696C142.005 13.2202 141.755 13.3295 141.479 13.3977V13.483C141.778 13.5 142.067 13.5952 142.349 13.7685C142.63 13.9389 142.862 14.1818 143.043 14.4972C143.225 14.8097 143.316 15.1889 143.316 15.6349C143.316 16.0838 143.21 16.4872 142.996 16.8452C142.783 17.2003 142.458 17.4815 142.021 17.6889C141.583 17.8963 141.028 18 140.354 18H136.915ZM138.369 16.777H140.167C140.769 16.777 141.202 16.6605 141.467 16.4276C141.731 16.1946 141.863 15.9006 141.863 15.5455C141.863 15.2756 141.796 15.0312 141.663 14.8125C141.529 14.5938 141.339 14.4205 141.092 14.2926C140.844 14.1648 140.552 14.1009 140.214 14.1009H138.369V16.777ZM138.369 13.0142H140.031C140.315 13.0142 140.57 12.9616 140.798 12.8565C141.028 12.7486 141.208 12.5966 141.339 12.4006C141.472 12.2045 141.539 11.9716 141.539 11.7017C141.539 11.3523 141.417 11.0625 141.173 10.8324C140.928 10.6023 140.559 10.4872 140.065 10.4872H138.369V13.0142ZM146.104 9.27273V18H144.694V9.27273H146.104ZM150.56 18.1321C149.933 18.1321 149.387 17.9915 148.924 17.7102C148.461 17.4261 148.102 17.0312 147.846 16.5256C147.593 16.0199 147.467 15.4304 147.467 14.7571C147.467 14.0781 147.593 13.4844 147.846 12.9759C148.102 12.4673 148.461 12.0724 148.924 11.7912C149.387 11.5099 149.933 11.3693 150.56 11.3693C151.188 11.3693 151.734 11.5099 152.197 11.7912C152.66 12.0724 153.018 12.4673 153.271 12.9759C153.526 13.4844 153.654 14.0781 153.654 14.7571C153.654 15.4304 153.526 16.0199 153.271 16.5256C153.018 17.0312 152.66 17.4261 152.197 17.7102C151.734 17.9915 151.188 18.1321 150.56 18.1321ZM150.565 16.9773C150.94 16.9773 151.249 16.8764 151.494 16.6747C151.741 16.473 151.925 16.2045 152.048 15.8693C152.17 15.5312 152.231 15.1591 152.231 14.7528C152.231 14.3437 152.17 13.9702 152.048 13.6321C151.925 13.2912 151.741 13.0199 151.494 12.8182C151.249 12.6136 150.94 12.5114 150.565 12.5114C150.187 12.5114 149.874 12.6136 149.627 12.8182C149.38 13.0199 149.195 13.2912 149.073 13.6321C148.951 13.9702 148.89 14.3437 148.89 14.7528C148.89 15.1591 148.951 15.5312 149.073 15.8693C149.195 16.2045 149.38 16.473 149.627 16.6747C149.874 16.8764 150.187 16.9773 150.565 16.9773ZM157.826 18.1321C157.184 18.1321 156.631 17.9886 156.168 17.7017C155.708 17.4119 155.353 17.0142 155.103 16.5085C154.856 16 154.732 15.4162 154.732 14.7571C154.732 14.0895 154.859 13.5014 155.112 12.9929C155.364 12.4844 155.721 12.0866 156.181 11.7997C156.644 11.5128 157.188 11.3693 157.813 11.3693C158.327 11.3693 158.785 11.4645 159.185 11.6548C159.586 11.8423 159.907 12.1065 160.148 12.4474C160.393 12.7884 160.535 13.1875 160.575 13.6449H159.215C159.153 13.3324 159.004 13.0682 158.768 12.8523C158.535 12.6364 158.224 12.5284 157.835 12.5284C157.499 12.5284 157.205 12.6179 156.952 12.7969C156.702 12.973 156.506 13.2259 156.364 13.5554C156.225 13.8821 156.156 14.2727 156.156 14.7273C156.156 15.1875 156.225 15.5852 156.364 15.9205C156.504 16.2528 156.698 16.5099 156.948 16.6918C157.201 16.8707 157.496 16.9602 157.835 16.9602C158.07 16.9602 158.282 16.9162 158.469 16.8281C158.66 16.7401 158.819 16.6136 158.947 16.4489C159.077 16.2812 159.167 16.0795 159.215 15.8438H160.575C160.532 16.2869 160.394 16.6818 160.161 17.0284C159.928 17.3722 159.613 17.642 159.215 17.8381C158.82 18.0341 158.357 18.1321 157.826 18.1321ZM163.188 15.8651L163.179 14.1562H163.418L165.898 11.4545H167.56L164.628 14.642H164.368L163.188 15.8651ZM161.897 18V9.27273H163.307V18H161.897ZM166.022 18L163.78 14.9574L164.743 13.9645L167.722 18H166.022ZM174.895 11.4545V12.5625H171.226V11.4545H174.895ZM172.168 9.88636H173.578V16.0568C173.578 16.2812 173.612 16.4531 173.68 16.5724C173.749 16.6889 173.838 16.7685 173.949 16.8111C174.063 16.8509 174.186 16.8707 174.32 16.8707C174.419 16.8707 174.507 16.8636 174.584 16.8494C174.663 16.8352 174.724 16.8239 174.767 16.8153L175.014 17.9446C174.935 17.9702 174.822 17.9986 174.678 18.0298C174.533 18.0639 174.355 18.0838 174.145 18.0895C173.784 18.098 173.453 18.0384 173.152 17.9105C172.854 17.7827 172.614 17.5852 172.432 17.3182C172.253 17.0511 172.165 16.7159 172.168 16.3125V9.88636ZM178.978 18.1321C178.35 18.1321 177.805 17.9915 177.342 17.7102C176.879 17.4261 176.52 17.0312 176.264 16.5256C176.011 16.0199 175.885 15.4304 175.885 14.7571C175.885 14.0781 176.011 13.4844 176.264 12.9759C176.52 12.4673 176.879 12.0724 177.342 11.7912C177.805 11.5099 178.35 11.3693 178.978 11.3693C179.606 11.3693 180.152 11.5099 180.615 11.7912C181.078 12.0724 181.436 12.4673 181.689 12.9759C181.944 13.4844 182.072 14.0781 182.072 14.7571C182.072 15.4304 181.944 16.0199 181.689 16.5256C181.436 17.0312 181.078 17.4261 180.615 17.7102C180.152 17.9915 179.606 18.1321 178.978 18.1321ZM178.983 16.9773C179.358 16.9773 179.667 16.8764 179.912 16.6747C180.159 16.473 180.343 16.2045 180.466 15.8693C180.588 15.5312 180.649 15.1591 180.649 14.7528C180.649 14.3437 180.588 13.9702 180.466 13.6321C180.343 13.2912 180.159 13.0199 179.912 12.8182C179.667 12.6136 179.358 12.5114 178.983 12.5114C178.605 12.5114 178.292 12.6136 178.045 12.8182C177.798 13.0199 177.613 13.2912 177.491 13.6321C177.369 13.9702 177.308 14.3437 177.308 14.7528C177.308 15.1591 177.369 15.5312 177.491 15.8693C177.613 16.2045 177.798 16.473 178.045 16.6747C178.292 16.8764 178.605 16.9773 178.983 16.9773ZM187.4 20.4545C187.201 20.4545 187.018 20.4389 186.85 20.4077C186.683 20.3764 186.553 20.3409 186.462 20.3011L186.795 19.1804C187.025 19.2457 187.229 19.2741 187.408 19.2656C187.587 19.2599 187.745 19.1989 187.881 19.0824C188.021 18.9659 188.14 18.7727 188.239 18.5028L188.388 18.1108L186.002 11.4545H187.502L189.083 16.4659H189.151L190.741 11.4545H192.245L189.582 18.831C189.46 19.1776 189.299 19.4716 189.1 19.7131C188.904 19.9545 188.665 20.1378 188.384 20.2628C188.106 20.3906 187.778 20.4545 187.4 20.4545ZM195.959 18.1321C195.331 18.1321 194.786 17.9915 194.322 17.7102C193.859 17.4261 193.5 17.0312 193.244 16.5256C192.991 16.0199 192.865 15.4304 192.865 14.7571C192.865 14.0781 192.991 13.4844 193.244 12.9759C193.5 12.4673 193.859 12.0724 194.322 11.7912C194.786 11.5099 195.331 11.3693 195.959 11.3693C196.587 11.3693 197.132 11.5099 197.595 11.7912C198.058 12.0724 198.416 12.4673 198.669 12.9759C198.925 13.4844 199.053 14.0781 199.053 14.7571C199.053 15.4304 198.925 16.0199 198.669 16.5256C198.416 17.0312 198.058 17.4261 197.595 17.7102C197.132 17.9915 196.587 18.1321 195.959 18.1321ZM195.963 16.9773C196.338 16.9773 196.648 16.8764 196.892 16.6747C197.139 16.473 197.324 16.2045 197.446 15.8693C197.568 15.5312 197.629 15.1591 197.629 14.7528C197.629 14.3437 197.568 13.9702 197.446 13.6321C197.324 13.2912 197.139 13.0199 196.892 12.8182C196.648 12.6136 196.338 12.5114 195.963 12.5114C195.585 12.5114 195.273 12.6136 195.026 12.8182C194.778 13.0199 194.594 13.2912 194.472 13.6321C194.349 13.9702 194.288 14.3437 194.288 14.7528C194.288 15.1591 194.349 15.5312 194.472 15.8693C194.594 16.2045 194.778 16.473 195.026 16.6747C195.273 16.8764 195.585 16.9773 195.963 16.9773ZM204.58 15.2685V11.4545H205.986V18H204.614V16.8494H204.545C204.395 17.2074 204.153 17.5028 203.821 17.7358C203.489 17.9687 203.075 18.0852 202.581 18.0852C202.158 18.0852 201.783 17.9915 201.456 17.804C201.132 17.6136 200.878 17.3352 200.693 16.9688C200.509 16.6023 200.416 16.152 200.416 15.6179V11.4545H201.827V15.4219C201.827 15.8537 201.945 16.1974 202.18 16.4531C202.419 16.706 202.729 16.8324 203.109 16.8324C203.345 16.8324 203.575 16.7756 203.8 16.6619C204.024 16.5455 204.21 16.3722 204.358 16.142C204.506 15.9091 204.58 15.6179 204.58 15.2685ZM207.635 18V11.4545H209.003V12.5199H209.071C209.19 12.1562 209.398 11.8722 209.693 11.6676C209.991 11.4602 210.33 11.3565 210.707 11.3565C210.79 11.3565 210.885 11.3608 210.993 11.3693C211.101 11.375 211.189 11.3835 211.257 11.3949V12.7159C211.197 12.696 211.099 12.6776 210.963 12.6605C210.83 12.6406 210.697 12.6307 210.567 12.6307C210.274 12.6307 210.013 12.6932 209.783 12.8182C209.555 12.9403 209.375 13.1108 209.241 13.3295C209.111 13.5455 209.045 13.7955 209.045 14.0795V18H207.635ZM215.404 20.4545V11.4545H216.785V12.5241H216.883C216.963 12.3793 217.074 12.2173 217.216 12.0384C217.358 11.8565 217.552 11.7003 217.799 11.5696C218.047 11.4361 218.368 11.3693 218.762 11.3693C219.277 11.3693 219.74 11.5 220.152 11.7614C220.564 12.0227 220.889 12.4048 221.127 12.9077C221.366 13.4105 221.485 14.0213 221.485 14.7401C221.485 15.4503 221.368 16.0582 221.132 16.5639C220.896 17.0668 220.574 17.4517 220.164 17.7188C219.755 17.9858 219.289 18.1193 218.767 18.1193C218.38 18.1193 218.062 18.0554 217.812 17.9276C217.565 17.7997 217.368 17.6463 217.22 17.4673C217.075 17.2884 216.963 17.1236 216.883 16.973H216.815V20.4545H215.404ZM216.789 14.7273C216.789 15.1676 216.852 15.5554 216.977 15.8906C217.105 16.223 217.289 16.483 217.531 16.6705C217.772 16.8551 218.066 16.9474 218.413 16.9474C218.771 16.9474 219.072 16.8509 219.316 16.6577C219.561 16.4645 219.744 16.2003 219.866 15.8651C219.991 15.5298 220.054 15.1506 220.054 14.7273C220.054 14.3068 219.993 13.9332 219.87 13.6065C219.748 13.277 219.565 13.0185 219.321 12.831C219.079 12.6406 218.777 12.5455 218.413 12.5455C218.061 12.5455 217.764 12.6364 217.522 12.8182C217.281 12.9972 217.098 13.25 216.973 13.5767C216.85 13.9034 216.789 14.2869 216.789 14.7273ZM222.858 18V11.4545H224.225V12.5199H224.294C224.413 12.1562 224.62 11.8722 224.916 11.6676C225.214 11.4602 225.552 11.3565 225.93 11.3565C226.012 11.3565 226.108 11.3608 226.216 11.3693C226.324 11.375 226.412 11.3835 226.48 11.3949V12.7159C226.42 12.696 226.322 12.6776 226.186 12.6605C226.052 12.6406 225.92 12.6307 225.789 12.6307C225.497 12.6307 225.235 12.6932 225.005 12.8182C224.778 12.9403 224.598 13.1108 224.464 13.3295C224.333 13.5455 224.268 13.7955 224.268 14.0795V18H222.858ZM230.107 18.1321C229.479 18.1321 228.934 17.9915 228.471 17.7102C228.008 17.4261 227.648 17.0312 227.393 16.5256C227.14 16.0199 227.013 15.4304 227.013 14.7571C227.013 14.0781 227.14 13.4844 227.393 12.9759C227.648 12.4673 228.008 12.0724 228.471 11.7912C228.934 11.5099 229.479 11.3693 230.107 11.3693C230.735 11.3693 231.281 11.5099 231.744 11.7912C232.207 12.0724 232.565 12.4673 232.817 12.9759C233.073 13.4844 233.201 14.0781 233.201 14.7571C233.201 15.4304 233.073 16.0199 232.817 16.5256C232.565 17.0312 232.207 17.4261 231.744 17.7102C231.281 17.9915 230.735 18.1321 230.107 18.1321ZM230.112 16.9773C230.487 16.9773 230.796 16.8764 231.04 16.6747C231.288 16.473 231.472 16.2045 231.594 15.8693C231.717 15.5312 231.778 15.1591 231.778 14.7528C231.778 14.3437 231.717 13.9702 231.594 13.6321C231.472 13.2912 231.288 13.0199 231.04 12.8182C230.796 12.6136 230.487 12.5114 230.112 12.5114C229.734 12.5114 229.421 12.6136 229.174 12.8182C228.927 13.0199 228.742 13.2912 228.62 13.6321C228.498 13.9702 228.437 14.3437 228.437 14.7528C228.437 15.1591 228.498 15.5312 228.62 15.8693C228.742 16.2045 228.927 16.473 229.174 16.6747C229.421 16.8764 229.734 16.9773 230.112 16.9773ZM237.006 18.1193C236.484 18.1193 236.018 17.9858 235.609 17.7188C235.2 17.4517 234.877 17.0668 234.641 16.5639C234.406 16.0582 234.288 15.4503 234.288 14.7401C234.288 14.0213 234.407 13.4105 234.646 12.9077C234.884 12.4048 235.21 12.0227 235.621 11.7614C236.033 11.5 236.498 11.3693 237.015 11.3693C237.41 11.3693 237.731 11.4361 237.978 11.5696C238.225 11.7003 238.42 11.8565 238.562 12.0384C238.704 12.2173 238.813 12.3793 238.89 12.5241H238.958V9.27273H240.369V18H238.988V16.973H238.89C238.81 17.1236 238.697 17.2884 238.549 17.4673C238.404 17.6463 238.207 17.7997 237.957 17.9276C237.71 18.0554 237.393 18.1193 237.006 18.1193ZM237.364 16.9474C237.711 16.9474 238.005 16.8551 238.246 16.6705C238.488 16.483 238.671 16.223 238.796 15.8906C238.924 15.5554 238.988 15.1676 238.988 14.7273C238.988 14.2869 238.925 13.9034 238.8 13.5767C238.675 13.25 238.492 12.9972 238.251 12.8182C238.009 12.6364 237.714 12.5455 237.364 12.5455C237.001 12.5455 236.697 12.6406 236.452 12.831C236.208 13.0185 236.025 13.277 235.903 13.6065C235.781 13.9332 235.719 14.3068 235.719 14.7273C235.719 15.1506 235.782 15.5298 235.907 15.8651C236.032 16.2003 236.215 16.4645 236.457 16.6577C236.701 16.8509 237.004 16.9474 237.364 16.9474ZM246.263 15.2685V11.4545H247.669V18H246.297V16.8494H246.229C246.078 17.2074 245.837 17.5028 245.505 17.7358C245.172 17.9687 244.759 18.0852 244.265 18.0852C243.841 18.0852 243.466 17.9915 243.14 17.804C242.816 17.6136 242.561 17.3352 242.377 16.9688C242.192 16.6023 242.1 16.152 242.1 15.6179V11.4545H243.51V15.4219C243.51 15.8537 243.628 16.1974 243.864 16.4531C244.103 16.706 244.412 16.8324 244.793 16.8324C245.029 16.8324 245.259 16.7756 245.483 16.6619C245.708 16.5455 245.894 16.3722 246.042 16.142C246.189 15.9091 246.263 15.6179 246.263 15.2685ZM252.127 18.1321C251.485 18.1321 250.932 17.9886 250.469 17.7017C250.009 17.4119 249.654 17.0142 249.404 16.5085C249.157 16 249.033 15.4162 249.033 14.7571C249.033 14.0895 249.159 13.5014 249.412 12.9929C249.665 12.4844 250.022 12.0866 250.482 11.7997C250.945 11.5128 251.489 11.3693 252.114 11.3693C252.628 11.3693 253.086 11.4645 253.486 11.6548C253.887 11.8423 254.208 12.1065 254.449 12.4474C254.694 12.7884 254.836 13.1875 254.875 13.6449H253.516C253.453 13.3324 253.304 13.0682 253.069 12.8523C252.836 12.6364 252.525 12.5284 252.135 12.5284C251.8 12.5284 251.506 12.6179 251.253 12.7969C251.003 12.973 250.807 13.2259 250.665 13.5554C250.526 13.8821 250.456 14.2727 250.456 14.7273C250.456 15.1875 250.526 15.5852 250.665 15.9205C250.804 16.2528 250.999 16.5099 251.249 16.6918C251.502 16.8707 251.797 16.9602 252.135 16.9602C252.371 16.9602 252.583 16.9162 252.77 16.8281C252.961 16.7401 253.12 16.6136 253.248 16.4489C253.378 16.2812 253.468 16.0795 253.516 15.8438H254.875C254.833 16.2869 254.695 16.6818 254.462 17.0284C254.229 17.3722 253.914 17.642 253.516 17.8381C253.121 18.0341 252.658 18.1321 252.127 18.1321ZM259.364 11.4545V12.5625H255.695V11.4545H259.364ZM256.636 9.88636H258.047V16.0568C258.047 16.2812 258.081 16.4531 258.149 16.5724C258.217 16.6889 258.307 16.7685 258.418 16.8111C258.531 16.8509 258.655 16.8707 258.788 16.8707C258.888 16.8707 258.976 16.8636 259.053 16.8494C259.132 16.8352 259.193 16.8239 259.236 16.8153L259.483 17.9446C259.403 17.9702 259.291 17.9986 259.146 18.0298C259.001 18.0639 258.824 18.0838 258.614 18.0895C258.253 18.098 257.922 18.0384 257.621 17.9105C257.322 17.7827 257.082 17.5852 256.901 17.3182C256.722 17.0511 256.634 16.7159 256.636 16.3125V9.88636ZM263.791 20.4545V11.4545H265.172V12.5241H265.27C265.349 12.3793 265.46 12.2173 265.602 12.0384C265.744 11.8565 265.939 11.7003 266.186 11.5696C266.433 11.4361 266.754 11.3693 267.149 11.3693C267.663 11.3693 268.126 11.5 268.538 11.7614C268.95 12.0227 269.276 12.4048 269.514 12.9077C269.753 13.4105 269.872 14.0213 269.872 14.7401C269.872 15.4503 269.754 16.0582 269.518 16.5639C269.283 17.0668 268.96 17.4517 268.551 17.7188C268.142 17.9858 267.676 18.1193 267.153 18.1193C266.767 18.1193 266.449 18.0554 266.199 17.9276C265.952 17.7997 265.754 17.6463 265.607 17.4673C265.462 17.2884 265.349 17.1236 265.27 16.973H265.202V20.4545H263.791ZM265.176 14.7273C265.176 15.1676 265.239 15.5554 265.364 15.8906C265.491 16.223 265.676 16.483 265.918 16.6705C266.159 16.8551 266.453 16.9474 266.8 16.9474C267.158 16.9474 267.459 16.8509 267.703 16.6577C267.947 16.4645 268.131 16.2003 268.253 15.8651C268.378 15.5298 268.44 15.1506 268.44 14.7273C268.44 14.3068 268.379 13.9332 268.257 13.6065C268.135 13.277 267.952 13.0185 267.707 12.831C267.466 12.6406 267.163 12.5455 266.8 12.5455C266.447 12.5455 266.151 12.6364 265.909 12.8182C265.668 12.9972 265.484 13.25 265.359 13.5767C265.237 13.9034 265.176 14.2869 265.176 14.7273ZM273.141 18.1364C272.726 18.1364 272.352 18.0611 272.02 17.9105C271.688 17.7599 271.423 17.5384 271.227 17.2457C271.034 16.9503 270.938 16.5881 270.938 16.1591C270.938 15.7869 271.007 15.4815 271.146 15.2429C271.288 15.0014 271.479 14.8097 271.717 14.6676C271.956 14.5256 272.223 14.419 272.518 14.348C272.817 14.2741 273.124 14.2202 273.439 14.1861C273.825 14.1406 274.139 14.1023 274.381 14.071C274.622 14.0398 274.798 13.9901 274.909 13.9219C275.02 13.8537 275.075 13.7443 275.075 13.5938V13.5639C275.075 13.2202 274.974 12.9531 274.773 12.7628C274.574 12.5724 274.283 12.4773 273.899 12.4773C273.496 12.4773 273.178 12.5653 272.945 12.7415C272.712 12.9176 272.551 13.1193 272.463 13.3466L271.146 13.108C271.274 12.7102 271.472 12.3835 271.739 12.1278C272.006 11.8693 272.322 11.679 272.689 11.5568C273.058 11.4318 273.456 11.3693 273.882 11.3693C274.172 11.3693 274.467 11.4034 274.768 11.4716C275.072 11.5398 275.354 11.6562 275.612 11.821C275.871 11.9858 276.08 12.2159 276.239 12.5114C276.401 12.8068 276.482 13.1818 276.482 13.6364V18H275.118V17.1051H275.067C274.982 17.2756 274.855 17.4403 274.688 17.5994C274.52 17.7585 274.308 17.8878 274.053 17.9872C273.797 18.0866 273.493 18.1364 273.141 18.1364ZM273.477 17.0625C273.81 17.0625 274.095 16.9972 274.334 16.8665C274.572 16.733 274.756 16.5597 274.884 16.3466C275.014 16.1307 275.08 15.8977 275.08 15.6477V14.8381C275.031 14.8807 274.946 14.9205 274.824 14.9574C274.702 14.9915 274.564 15.0227 274.411 15.0511C274.257 15.0767 274.107 15.0994 273.959 15.1193C273.811 15.1392 273.685 15.1562 273.58 15.1705C273.344 15.2045 273.129 15.2571 272.936 15.3281C272.743 15.3991 272.589 15.5014 272.476 15.6349C272.362 15.7656 272.305 15.9375 272.305 16.1506C272.305 16.4517 272.416 16.679 272.638 16.8324C272.859 16.9858 273.139 17.0625 273.477 17.0625ZM280.907 20.5909C280.37 20.5909 279.908 20.5199 279.522 20.3778C279.138 20.2358 278.827 20.0455 278.589 19.8068C278.35 19.5682 278.178 19.3068 278.073 19.0227L279.313 18.6307C279.384 18.7557 279.482 18.8849 279.607 19.0185C279.732 19.152 279.901 19.2642 280.114 19.3551C280.327 19.4489 280.599 19.4957 280.928 19.4957C281.388 19.4957 281.769 19.3835 282.07 19.1591C282.371 18.9375 282.522 18.5767 282.522 18.0767V16.8153H282.441C282.364 16.9659 282.252 17.1264 282.104 17.2969C281.957 17.4645 281.758 17.608 281.508 17.7273C281.258 17.8437 280.94 17.902 280.553 17.902C280.045 17.902 279.585 17.7827 279.173 17.544C278.763 17.3026 278.438 16.9446 278.197 16.4702C277.955 15.9957 277.835 15.4062 277.835 14.7017C277.835 13.9972 277.954 13.3963 278.192 12.8991C278.431 12.402 278.756 12.0227 279.168 11.7614C279.58 11.5 280.045 11.3693 280.562 11.3693C280.957 11.3693 281.278 11.4361 281.525 11.5696C281.775 11.7003 281.972 11.8565 282.117 12.0384C282.262 12.2173 282.373 12.3793 282.45 12.5241H282.535V11.4545H283.92V18.1278C283.92 18.6875 283.788 19.1491 283.523 19.5128C283.262 19.8764 282.904 20.1463 282.45 20.3224C281.995 20.5014 281.481 20.5909 280.907 20.5909ZM280.911 16.7685C281.258 16.7685 281.552 16.6861 281.793 16.5213C282.035 16.3565 282.218 16.1193 282.343 15.8097C282.471 15.4972 282.535 15.125 282.535 14.6932C282.535 14.2642 282.472 13.8892 282.347 13.5682C282.222 13.2472 282.039 12.9972 281.798 12.8182C281.556 12.6364 281.261 12.5455 280.911 12.5455C280.548 12.5455 280.244 12.6392 279.999 12.8267C279.755 13.0142 279.572 13.2699 279.45 13.5938C279.327 13.9176 279.266 14.2841 279.266 14.6932C279.266 15.108 279.329 15.4716 279.454 15.7841C279.579 16.0938 279.762 16.3352 280.004 16.5085C280.248 16.6818 280.55 16.7685 280.911 16.7685ZM288.428 18.1321C287.778 18.1321 287.217 17.9943 286.745 17.7188C286.273 17.4403 285.911 17.0497 285.658 16.5469C285.406 16.0412 285.279 15.4489 285.279 14.7699C285.279 14.0966 285.406 13.5043 285.658 12.9929C285.914 12.4815 286.271 12.0838 286.728 11.7997C287.185 11.5128 287.722 11.3693 288.339 11.3693C288.728 11.3693 289.099 11.4318 289.451 11.5568C289.803 11.6818 290.117 11.8778 290.393 12.1449C290.668 12.4091 290.886 12.75 291.045 13.1676C291.207 13.5852 291.288 14.0852 291.288 14.6676V15.1278H285.999V14.1307H289.92C289.92 13.8182 289.854 13.5398 289.724 13.2955C289.593 13.0483 289.41 12.8537 289.174 12.7116C288.941 12.5696 288.668 12.4986 288.356 12.4986C288.018 12.4986 287.722 12.5795 287.469 12.7415C287.219 12.9034 287.025 13.1165 286.886 13.3807C286.749 13.6449 286.68 13.9318 286.677 14.2415V15.0639C286.677 15.473 286.751 15.8224 286.898 16.1122C287.046 16.402 287.252 16.6236 287.516 16.777C287.781 16.9276 288.089 17.0028 288.441 17.0028C288.677 17.0028 288.89 16.9702 289.08 16.9048C289.271 16.8366 289.434 16.7372 289.57 16.6065C289.71 16.473 289.816 16.3082 289.89 16.1122L291.215 16.304C291.121 16.6705 290.948 16.9915 290.695 17.267C290.445 17.5398 290.127 17.7528 289.741 17.9062C289.357 18.0568 288.92 18.1321 288.428 18.1321Z" fill="#303030"/>
</g>
<defs>
<filter id="filter0_iiii_8833_4676" x="0" y="0" width="304" height="28" filterUnits="userSpaceOnUse" color-interpolation-filters="sRGB">
<feFlood flood-opacity="0" result="BackgroundImageFix"/>
<feBlend mode="normal" in="SourceGraphic" in2="BackgroundImageFix" result="shape"/>
<feColorMatrix in="SourceAlpha" type="matrix" values="0 0 0 0 0 0 0 0 0 0 0 0 0 0 0 0 0 0 127 0" result="hardAlpha"/>
<feOffset dy="1"/>
<feComposite in2="hardAlpha" operator="arithmetic" k2="-1" k3="1"/>
<feColorMatrix type="matrix" values="0 0 0 0 0.890196 0 0 0 0 0.890196 0 0 0 0 0.890196 0 0 0 1 0"/>
<feBlend mode="normal" in2="shape" result="effect1_innerShadow_8833_4676"/>
<feColorMatrix in="SourceAlpha" type="matrix" values="0 0 0 0 0 0 0 0 0 0 0 0 0 0 0 0 0 0 127 0" result="hardAlpha"/>
<feOffset dx="1"/>
<feComposite in2="hardAlpha" operator="arithmetic" k2="-1" k3="1"/>
<feColorMatrix type="matrix" values="0 0 0 0 0.890196 0 0 0 0 0.890196 0 0 0 0 0.890196 0 0 0 1 0"/>
<feBlend mode="normal" in2="effect1_innerShadow_8833_4676" result="effect2_innerShadow_8833_4676"/>
<feColorMatrix in="SourceAlpha" type="matrix" values="0 0 0 0 0 0 0 0 0 0 0 0 0 0 0 0 0 0 127 0" result="hardAlpha"/>
<feOffset dx="-1"/>
<feComposite in2="hardAlpha" operator="arithmetic" k2="-1" k3="1"/>
<feColorMatrix type="matrix" values="0 0 0 0 0.890196 0 0 0 0 0.890196 0 0 0 0 0.890196 0 0 0 1 0"/>
<feBlend mode="normal" in2="effect2_innerShadow_8833_4676" result="effect3_innerShadow_8833_4676"/>
<feColorMatrix in="SourceAlpha" type="matrix" values="0 0 0 0 0 0 0 0 0 0 0 0 0 0 0 0 0 0 127 0" result="hardAlpha"/>
<feOffset dy="-1"/>
<feComposite in2="hardAlpha" operator="arithmetic" k2="-1" k3="1"/>
<feColorMatrix type="matrix" values="0 0 0 0 0.709804 0 0 0 0 0.709804 0 0 0 0 0.709804 0 0 0 1 0"/>
<feBlend mode="normal" in2="effect3_innerShadow_8833_4676" result="effect4_innerShadow_8833_4676"/>
</filter>
</defs>
</svg>
