<svg width="148" height="171" viewBox="0 0 148 171" fill="none" xmlns="http://www.w3.org/2000/svg">
<path d="M148 97C148 107.99 145.6 118.43 141.29 127.81C129.61 153.3 103.87 171 74 171C44.13 171 18.39 153.3 6.71 127.81C2.4 118.43 0 107.99 0 97C0 56.13 33.13 23 74 23C114.87 23 148 56.13 148 97Z" fill="#F0F1F2"/>
<mask id="mask0_8558_819" style="mask-type:alpha" maskUnits="userSpaceOnUse" x="0" y="0" width="148" height="171">
<path d="M148 40.5C148 51.49 145.6 118.43 141.29 127.81C129.61 153.3 103.87 171 74 171C44.13 171 18.39 153.3 6.71 127.81C2.4 118.43 0 51.49 0 40.5C0 -0.369999 33.13 0.000117124 74 0.000117124C114.87 0.000117124 148 -0.369999 148 40.5Z" fill="#F0F1F2"/>
</mask>
<g mask="url(#mask0_8558_819)">
<g filter="url(#filter0_d_8558_819)">
<path d="M17.8906 19.623C17.8906 18.726 18.6166 18 19.5136 18H128.268C129.165 18 129.891 18.726 129.891 19.623V169.826C129.891 170.723 129.165 171.449 128.268 171.449H19.5136C18.6166 171.449 17.8906 170.723 17.8906 169.826V19.623Z" fill="#FF5E1A"/>
<path d="M129.891 75.2734H17.8906V105.708H129.891V75.2734Z" fill="#E85618"/>
<path d="M17.8906 105.711H129.891V169.827C129.891 170.724 129.165 171.45 128.268 171.45H19.5136C18.6166 171.45 17.8906 170.724 17.8906 169.827V105.711Z" fill="white"/>
<path d="M43.9827 75.1287H39.9977L37.9688 63.0117H41.9458L42.1247 64.0827L43.9827 75.1287Z" fill="white"/>
<path d="M106.743 105.85H103.202L100.797 91.5117H104.337L106.743 105.85Z" fill="#6D493C"/>
<path d="M72.4862 59.8264H41.4172L36.3672 29.7344H65.1902C66.4872 29.7344 67.5942 30.6714 67.8092 31.9504L72.4862 59.8264Z" fill="white"/>
<path d="M41.4145 59.8274H37.4345L32.9045 32.8294C32.6325 31.2104 33.8805 29.7344 35.5225 29.7344H36.3645L41.4145 59.8274Z" fill="white"/>
<path d="M112.68 63.0321L101.141 72.4871L101.583 75.1281H93.2277L108.01 63.0141H86.2188V59.8281H112.68V63.0321Z" fill="#6D493C"/>
<path d="M74.7034 94.1507L60.4254 105.85H55.7344L73.2304 91.5117H74.2584L74.7034 94.1507Z" fill="#6D493C"/>
<path d="M74.0501 69.1407L70.9381 71.6917L66.7471 75.1257H43.9851L41.9531 63.0117H73.0211L74.0501 69.1407Z" fill="white"/>
<path d="M86.216 63.0151L74.613 72.5241L80.205 105.852H76.665L71.51 75.1281L71.501 75.0731L71.434 75.1281L33.941 105.852H29.25L81.525 63.0141H32.669V59.8281H86.216V63.0151Z" fill="#AF5947"/>
<path d="M117.678 77.7849V91.5149H88.4922V75.1289H115.023C116.489 75.1289 117.678 76.3179 117.678 77.7849Z" fill="#D2D5D9"/>
<path d="M88.4947 75.1289V91.5139H77.8037L75.0547 75.1289H88.4947Z" fill="#D2D5D9"/>
<path d="M74.2565 91.5152H51.4375L71.4985 75.0742L74.2565 91.5152Z" fill="#D2D5D9"/>
<path d="M66.742 75.1289L46.728 91.5149H42.751L40 75.1289H66.742Z" fill="#D2D5D9"/>
<path d="M76.8906 117H30.8906C29.7856 117 28.8906 117.895 28.8906 119C28.8906 120.105 29.7856 121 30.8906 121H76.8906C77.9956 121 78.8906 120.105 78.8906 119C78.8906 117.895 77.9946 117 76.8906 117Z" fill="#D2D5D9"/>
<path d="M63.8906 132H33.8906C31.1296 132 28.8906 134.239 28.8906 137C28.8906 139.761 31.1296 142 33.8906 142H63.8906C66.6516 142 68.8906 139.761 68.8906 137C68.8906 134.239 66.6516 132 63.8906 132Z" fill="#E85618"/>
</g>
</g>
<defs>
<filter id="filter0_d_8558_819" x="7.89062" y="10" width="132" height="173.449" filterUnits="userSpaceOnUse" color-interpolation-filters="sRGB">
<feFlood flood-opacity="0" result="BackgroundImageFix"/>
<feColorMatrix in="SourceAlpha" type="matrix" values="0 0 0 0 0 0 0 0 0 0 0 0 0 0 0 0 0 0 127 0" result="hardAlpha"/>
<feOffset dy="2"/>
<feGaussianBlur stdDeviation="5"/>
<feColorMatrix type="matrix" values="0 0 0 0 0 0 0 0 0 0 0 0 0 0 0 0 0 0 0.3 0"/>
<feBlend mode="normal" in2="BackgroundImageFix" result="effect1_dropShadow_8558_819"/>
<feBlend mode="normal" in="SourceGraphic" in2="effect1_dropShadow_8558_819" result="shape"/>
</filter>
</defs>
</svg>
