<svg width="100" height="124" viewBox="0 0 100 124" fill="none" xmlns="http://www.w3.org/2000/svg">
<path d="M84.9041 38.7555V20H41.5078V61.2622H88.6777L84.9041 38.7555Z" fill="#E85618"/>
<path d="M41.5078 61.2617V102.524H96.2249L88.6777 61.2617H41.5078Z" fill="#E85618"/>
<path d="M81.1328 42.5066L100.001 23.7511V20H81.1328V42.5066Z" fill="#E85618"/>
<path d="M45.282 20H33.9612C29.8103 20 26.4141 23.376 26.4141 27.5022V41.552C26.4141 43.1151 27.6812 44.3822 29.2443 44.3822C30.8073 44.3822 32.0744 43.1151 32.0744 41.552V27.5022C32.0744 26.3769 32.8292 25.6267 33.9612 25.6267H45.282V20Z" fill="#E85618"/>
<path d="M41.5095 102.524C18.4906 102.524 0 84.1435 0 61.2617H41.5095V102.524Z" fill="#B54312"/>
<path d="M41.5078 102.524C64.5267 102.524 83.0173 84.1435 83.0173 61.2617H41.5078V102.524Z" fill="#EC856F"/>
<path d="M41.5121 74.3906H2.07812C2.64416 76.2662 3.58754 78.1417 4.53093 80.0173H41.5121V74.3906Z" fill="white"/>
<path d="M41.5078 74.3906V80.0173H78.4889C79.4323 78.1417 80.1871 76.2662 80.9419 74.3906H41.5078Z" fill="#6B270B"/>
</svg>
